<?xml version="1.0" standalone="no"?><!DOCTYPE svg PUBLIC "-//W3C//DTD SVG 1.1//EN" "http://www.w3.org/Graphics/SVG/1.1/DTD/svg11.dtd"><svg class="icon" width="200px" height="200.00px" viewBox="0 0 1024 1024" version="1.1" xmlns="http://www.w3.org/2000/svg"><path fill="#ffffff" d="M512 528.896c132.096 0 239.104-158.208 239.104-290.304C751.104 107.008 644.096 0 512 0S272.896 107.008 272.896 239.104c0 131.584 107.008 289.792 239.104 289.792zM834.048 667.648L727.552 614.4l-78.848 277.504s-4.096 28.672-36.352 28.672-46.08-28.672-46.08-28.672V665.6s0-51.2-52.224-51.2-54.272 51.2-54.272 51.2v226.304s0 24.064-40.448 24.064-42.496-24.064-42.496-24.064L296.448 614.4l-106.496 53.248c-57.856 28.672-104.448 104.448-104.448 168.96v70.656c0 64.512 52.224 116.736 116.736 116.736h619.52c64.512 0 116.736-52.224 116.736-116.736v-70.656c0-64.512-46.592-140.288-104.448-168.96z" /></svg>