<?xml version="1.0" standalone="no"?><!DOCTYPE svg PUBLIC "-//W3C//DTD SVG 1.1//EN" "http://www.w3.org/Graphics/SVG/1.1/DTD/svg11.dtd"><svg class="icon" width="200px" height="166.64px" viewBox="0 0 1229 1024" version="1.1" xmlns="http://www.w3.org/2000/svg"><path fill="#ffffff" d="M65.947034 6.253153C65.947034 4.65237 66.547155 3.052809 67.747397 1.830879 68.948841 0.610293 70.521743 0 72.095965 0L110.997795 0C112.571897 0 114.144799 0.610293 115.346362 1.830879 116.546605 3.052686 117.146726 4.652248 117.146726 6.253153L117.146726 971.932501 1152.064771 971.932501C1153.63767 971.932501 1155.212971 972.542792 1156.412013 973.764724 1157.613459 974.985312 1158.2137 976.58609 1158.2137 978.185653L1158.2137 1017.746848C1158.2137 1019.346412 1157.613582 1020.948412 1156.412013 1022.167777 1155.211776 1023.389587 1153.63767 1024 1152.064771 1024L65.947038 1024 65.947038 6.253177 65.947034 6.253153ZM543.813726 18.44682C543.813726 13.725707 545.013968 9.004474 547.416215 5.403741 549.817581 1.801687 552.964986 0 556.111589 0L668.04917 0C671.196575 0 674.344059 1.800366 676.744544 5.403741 679.14591 9.005795 680.347034 13.726908 680.347034 18.44682L680.347034 887.466667 543.8137 887.466667 543.8137 18.446844 543.813726 18.44682ZM270.747047 291.01489C270.747047 286.421384 271.947289 281.82776 274.349535 278.324351 276.750901 274.819656 279.898305 273.066667 283.044908 273.066667L394.982505 273.066667C398.129909 273.066667 401.277393 274.818371 403.677878 278.324351 406.079244 281.829046 407.280367 286.422552 407.280367 291.01489L407.280367 887.466667 270.747034 887.466667 270.747034 291.014895 270.747047 291.01489ZM820.482874 551.045827C822.884243 547.772432 826.031643 546.133333 829.178245 546.133333L941.115836 546.133333C944.263243 546.133333 947.410726 547.771232 949.811214 551.045827 952.211695 554.320422 953.4137 558.612343 953.4137 562.903174L953.4137 887.466667 816.880367 887.466667 816.880367 562.903187C816.880387 558.611252 818.081512 554.319221 820.482874 551.045827ZM1089.947068 772.01522C1089.947068 766.619709 1091.148186 761.224069 1093.549554 757.108982 1095.950916 752.993894 1099.098324 750.933333 1102.244925 750.933333L1214.182509 750.933333C1217.32991 750.933333 1220.477392 752.992386 1222.87788 757.108982 1225.278362 761.225578 1226.480367 766.621088 1226.480367 772.01522L1226.480367 887.466667 1089.947034 887.466667 1089.947034 772.015213 1089.947068 772.01522Z" /></svg>