<?xml version="1.0" standalone="no"?><!DOCTYPE svg PUBLIC "-//W3C//DTD SVG 1.1//EN" "http://www.w3.org/Graphics/SVG/1.1/DTD/svg11.dtd"><svg t="1594361132471" class="icon" viewBox="0 0 1445 1024" version="1.1" xmlns="http://www.w3.org/2000/svg" p-id="3688" xmlns:xlink="http://www.w3.org/1999/xlink" width="282.2265625" height="200"><defs><style type="text/css"></style></defs><path d="M1264.941779 1024H180.706485a180.705882 180.705882 0 0 1-180.705883-180.705882v-16.865883a180.705882 180.705882 0 0 1 41.562353-115.651764L277.082955 428.272941a120.470588 120.470588 0 0 1 168.056471-16.865882l213.232941 170.465882 104.207059-104.207059a120.470588 120.470588 0 0 1 160.225882-9.035294l259.011765 207.209412a60.235294 60.235294 0 1 1-75.294118 93.967059l-259.011764-207.209412-104.207059 104.207059a120.470588 120.470588 0 0 1-160.225883 9.035294L369.845308 505.374118l-235.52 282.503529a60.235294 60.235294 0 0 0-13.854117 38.550588V843.294118a60.235294 60.235294 0 0 0 60.235294 60.235294h1084.235294a60.235294 60.235294 0 0 0 60.235294-60.235294V180.705882a60.235294 60.235294 0 0 0-60.235294-60.235294H180.706485a60.235294 60.235294 0 0 0-60.235294 60.235294v240.941177a60.235294 60.235294 0 0 1-120.470589 0V180.705882a180.705882 180.705882 0 0 1 180.705883-180.705882h1084.235294a180.705882 180.705882 0 0 1 180.705882 180.705882v662.588236a180.705882 180.705882 0 0 1-180.705882 180.705882zM1114.353544 240.941176A90.352941 90.352941 0 1 0 1204.706485 331.294118 90.352941 90.352941 0 0 0 1114.353544 240.941176z" fill="#d4237a" p-id="3689"></path></svg>